<svg width="397" height="375" viewBox="0 0 397 375" fill="none" xmlns="http://www.w3.org/2000/svg">
<path d="M370 194.483C370 289.752 292.769 366.983 197.5 366.983C102.231 366.983 25 289.752 25 194.483C25 99.2135 102.231 21.9827 197.5 21.9827C292.769 21.9827 370 99.2135 370 194.483Z" stroke="#4D9CFF" stroke-width="15" stroke-linecap="round" stroke-linejoin="round"/>
<path d="M370 194.483C370 289.752 292.769 366.983 197.5 366.983C102.231 366.983 25 289.752 25 194.483C25 99.2135 102.231 21.9827 197.5 21.9827C292.769 21.9827 370 99.2135 370 194.483Z" stroke="#4D9CFF" stroke-width="15" stroke-linecap="round" stroke-linejoin="round"/>
<path d="M201.5 13C187.164 13 169.388 14.8349 155.518 18.4599L198 181L201.5 13Z" fill="white"/>
<path fill-rule="evenodd" clip-rule="evenodd" d="M169.341 16.4127C170.988 16.4694 171.863 18.3821 170.83 19.6658L138.658 59.6239C137.519 61.0378 135.238 60.3261 135.105 58.5157L133.464 36.099L116.351 18.0168C115.122 16.7179 116.085 14.5818 117.873 14.6432L169.341 16.4127Z" fill="#4D9CFF"/>
<path d="M210 22C210 26.4183 206.194 29.5 201.5 29.5C196.806 29.5 193 26.4183 193 22C193 17.5817 196.806 14.5 201.5 14.5C206.194 14.5 210 17.5817 210 22Z" fill="#4D9CFF"/>
<g opacity="0.141801" filter="url(#filter0_d)">
<circle cx="354" cy="127.983" r="28" fill="#4D9CFF"/>
</g>
<g filter="url(#filter1_d)">
<circle cx="354.5" cy="128.483" r="18.5" fill="#4D9CFF"/>
</g>
<path d="M353.359 135.983V124.543L350.659 126.203V123.203L353.359 121.583H356.139V135.983H353.359Z" fill="white"/>
<g opacity="0.141801" filter="url(#filter2_d)">
<circle cx="346" cy="297.983" r="28" fill="#4D9CFF"/>
</g>
<g filter="url(#filter3_d)">
<circle cx="346.5" cy="298.483" r="18.5" fill="#4D9CFF"/>
</g>
<path d="M341.465 305.963V303.603L347.505 298.243C347.958 297.843 348.278 297.466 348.465 297.113C348.652 296.76 348.745 296.43 348.745 296.123C348.745 295.683 348.655 295.293 348.475 294.953C348.295 294.606 348.042 294.336 347.715 294.143C347.388 293.943 347.005 293.843 346.565 293.843C346.105 293.843 345.698 293.95 345.345 294.163C344.998 294.37 344.728 294.646 344.535 294.993C344.342 295.333 344.252 295.703 344.265 296.103H341.465C341.465 295.116 341.682 294.263 342.115 293.543C342.548 292.823 343.152 292.266 343.925 291.873C344.698 291.48 345.598 291.283 346.625 291.283C347.565 291.283 348.405 291.49 349.145 291.903C349.892 292.31 350.478 292.88 350.905 293.613C351.332 294.346 351.545 295.196 351.545 296.163C351.545 296.876 351.445 297.47 351.245 297.943C351.045 298.41 350.748 298.843 350.355 299.243C349.962 299.636 349.478 300.083 348.905 300.583L345.005 304.003L344.785 303.403H351.545V305.963H341.465Z" fill="white"/>
<g opacity="0.141801" filter="url(#filter4_d)">
<circle cx="58" cy="297.983" r="28" fill="#4D9CFF"/>
</g>
<g filter="url(#filter5_d)">
<circle cx="58.5" cy="298.483" r="18.5" fill="#4D9CFF"/>
</g>
<path d="M57.6918 306.243C56.9718 306.243 56.2851 306.1 55.6318 305.813C54.9785 305.52 54.4085 305.11 53.9218 304.583C53.4418 304.056 53.0985 303.436 52.8918 302.723L55.5318 302.023C55.6718 302.55 55.9451 302.96 56.3518 303.253C56.7651 303.54 57.2118 303.683 57.6918 303.683C58.1051 303.683 58.4818 303.583 58.8218 303.383C59.1685 303.183 59.4418 302.913 59.6418 302.573C59.8485 302.233 59.9518 301.856 59.9518 301.443C59.9518 300.823 59.7385 300.293 59.3118 299.853C58.8918 299.406 58.3518 299.183 57.6918 299.183C57.4918 299.183 57.2985 299.213 57.1118 299.273C56.9251 299.326 56.7451 299.403 56.5718 299.503L55.3518 297.363L59.9318 293.563L60.1318 294.143H53.4518V291.583H62.4518V294.143L58.8918 297.583L58.8718 296.823C59.6985 296.95 60.3951 297.24 60.9618 297.693C61.5351 298.14 61.9685 298.693 62.2618 299.353C62.5618 300.006 62.7118 300.703 62.7118 301.443C62.7118 302.35 62.4818 303.166 62.0218 303.893C61.5618 304.613 60.9518 305.186 60.1918 305.613C59.4318 306.033 58.5985 306.243 57.6918 306.243Z" fill="white"/>
<g opacity="0.141801" filter="url(#filter6_d)">
<circle cx="43" cy="127.983" r="28" fill="#4D9CFF"/>
</g>
<g filter="url(#filter7_d)">
<circle cx="43.5" cy="128.483" r="18.5" fill="#4D9CFF"/>
</g>
<path d="M44.6077 135.983V133.743H38.3477V131.203L42.8877 121.583H46.0077L41.4677 131.203H44.6077V127.603H47.3677V131.203H48.6477V133.743H47.3677V135.983H44.6077Z" fill="white"/>
<g clip-path="url(#clip0)">
<path d="M122.416 176.54C120.496 176.54 118.762 176.204 117.214 175.532C115.678 174.848 114.412 173.876 113.416 172.616C112.432 171.344 111.808 169.832 111.544 168.08L116.656 167.324C117.016 168.812 117.76 169.958 118.888 170.762C120.016 171.566 121.3 171.968 122.74 171.968C123.544 171.968 124.324 171.842 125.08 171.59C125.836 171.338 126.454 170.966 126.934 170.474C127.426 169.982 127.672 169.376 127.672 168.656C127.672 168.392 127.63 168.14 127.546 167.9C127.474 167.648 127.348 167.414 127.168 167.198C126.988 166.982 126.73 166.778 126.394 166.586C126.07 166.394 125.656 166.22 125.152 166.064L118.42 164.084C117.916 163.94 117.328 163.736 116.656 163.472C115.996 163.208 115.354 162.83 114.73 162.338C114.106 161.846 113.584 161.198 113.164 160.394C112.756 159.578 112.552 158.552 112.552 157.316C112.552 155.576 112.99 154.13 113.866 152.978C114.742 151.826 115.912 150.968 117.376 150.404C118.84 149.84 120.46 149.564 122.236 149.576C124.024 149.6 125.62 149.906 127.024 150.494C128.428 151.082 129.604 151.94 130.552 153.068C131.5 154.184 132.184 155.552 132.604 157.172L127.312 158.072C127.12 157.232 126.766 156.524 126.25 155.948C125.734 155.372 125.116 154.934 124.396 154.634C123.688 154.334 122.944 154.172 122.164 154.148C121.396 154.124 120.67 154.232 119.986 154.472C119.314 154.7 118.762 155.036 118.33 155.48C117.91 155.924 117.7 156.452 117.7 157.064C117.7 157.628 117.874 158.09 118.222 158.45C118.57 158.798 119.008 159.08 119.536 159.296C120.064 159.512 120.604 159.692 121.156 159.836L125.656 161.06C126.328 161.24 127.072 161.48 127.888 161.78C128.704 162.068 129.484 162.476 130.228 163.004C130.984 163.52 131.602 164.204 132.082 165.056C132.574 165.908 132.82 166.988 132.82 168.296C132.82 169.688 132.526 170.906 131.938 171.95C131.362 172.982 130.582 173.84 129.598 174.524C128.614 175.196 127.498 175.7 126.25 176.036C125.014 176.372 123.736 176.54 122.416 176.54ZM145.344 176.54C143.328 176.54 141.6 176.09 140.16 175.19C138.72 174.29 137.616 173.066 136.848 171.518C136.08 169.97 135.696 168.224 135.696 166.28C135.696 164.312 136.092 162.554 136.884 161.006C137.688 159.458 138.816 158.24 140.268 157.352C141.72 156.464 143.436 156.02 145.416 156.02C147.708 156.02 149.628 156.602 151.176 157.766C152.736 158.918 153.732 160.496 154.164 162.5L149.268 163.796C148.98 162.788 148.476 162.002 147.756 161.438C147.048 160.874 146.244 160.592 145.344 160.592C144.312 160.592 143.466 160.844 142.806 161.348C142.146 161.84 141.66 162.518 141.348 163.382C141.036 164.234 140.88 165.2 140.88 166.28C140.88 167.972 141.252 169.346 141.996 170.402C142.752 171.446 143.868 171.968 145.344 171.968C146.448 171.968 147.288 171.716 147.864 171.212C148.44 170.708 148.872 169.988 149.16 169.052L154.164 170.096C153.612 172.16 152.568 173.75 151.032 174.866C149.496 175.982 147.6 176.54 145.344 176.54ZM157.764 176V156.56H162.084V161.312L161.616 160.7C161.868 160.028 162.204 159.416 162.624 158.864C163.044 158.312 163.56 157.856 164.172 157.496C164.64 157.208 165.15 156.986 165.702 156.83C166.254 156.662 166.824 156.56 167.412 156.524C168 156.476 168.588 156.488 169.176 156.56V161.132C168.636 160.964 168.006 160.91 167.286 160.97C166.578 161.018 165.936 161.18 165.36 161.456C164.784 161.72 164.298 162.074 163.902 162.518C163.506 162.95 163.206 163.466 163.002 164.066C162.798 164.654 162.696 165.32 162.696 166.064V176H157.764ZM181.285 176.54C179.293 176.54 177.535 176.114 176.011 175.262C174.499 174.398 173.311 173.216 172.447 171.716C171.595 170.204 171.169 168.476 171.169 166.532C171.169 164.408 171.589 162.56 172.429 160.988C173.269 159.416 174.427 158.198 175.903 157.334C177.379 156.458 179.077 156.02 180.997 156.02C183.037 156.02 184.771 156.5 186.199 157.46C187.627 158.42 188.683 159.77 189.367 161.51C190.051 163.25 190.291 165.296 190.087 167.648H185.245V165.848C185.245 163.868 184.927 162.446 184.291 161.582C183.667 160.706 182.641 160.268 181.213 160.268C179.545 160.268 178.315 160.778 177.523 161.798C176.743 162.806 176.353 164.3 176.353 166.28C176.353 168.092 176.743 169.496 177.523 170.492C178.315 171.476 179.473 171.968 180.997 171.968C181.957 171.968 182.779 171.758 183.463 171.338C184.147 170.918 184.669 170.312 185.029 169.52L189.925 170.924C189.193 172.7 188.035 174.08 186.451 175.064C184.879 176.048 183.157 176.54 181.285 176.54ZM174.841 167.648V164.012H187.729V167.648H174.841ZM203.187 176.54C201.195 176.54 199.437 176.114 197.913 175.262C196.401 174.398 195.213 173.216 194.349 171.716C193.497 170.204 193.071 168.476 193.071 166.532C193.071 164.408 193.491 162.56 194.331 160.988C195.171 159.416 196.329 158.198 197.805 157.334C199.281 156.458 200.979 156.02 202.899 156.02C204.939 156.02 206.673 156.5 208.101 157.46C209.529 158.42 210.585 159.77 211.269 161.51C211.953 163.25 212.193 165.296 211.989 167.648H207.147V165.848C207.147 163.868 206.829 162.446 206.193 161.582C205.569 160.706 204.543 160.268 203.115 160.268C201.447 160.268 200.217 160.778 199.425 161.798C198.645 162.806 198.255 164.3 198.255 166.28C198.255 168.092 198.645 169.496 199.425 170.492C200.217 171.476 201.375 171.968 202.899 171.968C203.859 171.968 204.681 171.758 205.365 171.338C206.049 170.918 206.571 170.312 206.931 169.52L211.827 170.924C211.095 172.7 209.937 174.08 208.353 175.064C206.781 176.048 205.059 176.54 203.187 176.54ZM196.743 167.648V164.012H209.631V167.648H196.743ZM228.774 176V166.82C228.774 166.376 228.75 165.812 228.702 165.128C228.654 164.432 228.504 163.736 228.252 163.04C228 162.344 227.586 161.762 227.01 161.294C226.446 160.826 225.642 160.592 224.598 160.592C224.178 160.592 223.728 160.658 223.248 160.79C222.768 160.922 222.318 161.18 221.898 161.564C221.478 161.936 221.13 162.488 220.854 163.22C220.59 163.952 220.458 164.924 220.458 166.136L217.65 164.804C217.65 163.268 217.962 161.828 218.586 160.484C219.21 159.14 220.146 158.054 221.394 157.226C222.654 156.398 224.238 155.984 226.146 155.984C227.67 155.984 228.912 156.242 229.872 156.758C230.832 157.274 231.576 157.928 232.104 158.72C232.644 159.512 233.028 160.34 233.256 161.204C233.484 162.056 233.622 162.836 233.67 163.544C233.718 164.252 233.742 164.768 233.742 165.092V176H228.774ZM215.49 176V156.56H219.846V163.004H220.458V176H215.49ZM238.773 153.86V149.54H243.669V153.86H238.773ZM238.773 176V156.56H243.669V176H238.773ZM262.313 176V166.82C262.313 166.376 262.289 165.812 262.241 165.128C262.193 164.432 262.043 163.736 261.791 163.04C261.539 162.344 261.125 161.762 260.549 161.294C259.985 160.826 259.181 160.592 258.137 160.592C257.717 160.592 257.267 160.658 256.787 160.79C256.307 160.922 255.857 161.18 255.437 161.564C255.017 161.936 254.669 162.488 254.393 163.22C254.129 163.952 253.997 164.924 253.997 166.136L251.189 164.804C251.189 163.268 251.501 161.828 252.125 160.484C252.749 159.14 253.685 158.054 254.933 157.226C256.193 156.398 257.777 155.984 259.685 155.984C261.209 155.984 262.451 156.242 263.411 156.758C264.371 157.274 265.115 157.928 265.643 158.72C266.183 159.512 266.567 160.34 266.795 161.204C267.023 162.056 267.161 162.836 267.209 163.544C267.257 164.252 267.281 164.768 267.281 165.092V176H262.313ZM249.029 176V156.56H253.385V163.004H253.997V176H249.029ZM280.268 185.18C279.164 185.18 278.114 185 277.118 184.64C276.122 184.292 275.228 183.8 274.436 183.164C273.656 182.54 273.02 181.808 272.528 180.968L277.064 178.772C277.376 179.348 277.82 179.786 278.396 180.086C278.984 180.386 279.62 180.536 280.304 180.536C281.036 180.536 281.726 180.41 282.374 180.158C283.022 179.918 283.538 179.552 283.922 179.06C284.318 178.58 284.504 177.98 284.48 177.26V171.608H285.092V156.56H289.376V177.332C289.376 177.812 289.352 178.262 289.304 178.682C289.268 179.114 289.196 179.54 289.088 179.96C288.776 181.148 288.194 182.126 287.342 182.894C286.502 183.662 285.47 184.232 284.246 184.604C283.022 184.988 281.696 185.18 280.268 185.18ZM279.836 176.54C278.048 176.54 276.482 176.09 275.138 175.19C273.794 174.29 272.744 173.066 271.988 171.518C271.244 169.97 270.872 168.224 270.872 166.28C270.872 164.3 271.25 162.542 272.006 161.006C272.774 159.458 273.848 158.24 275.228 157.352C276.608 156.464 278.228 156.02 280.088 156.02C281.936 156.02 283.49 156.47 284.75 157.37C286.01 158.27 286.964 159.494 287.612 161.042C288.26 162.59 288.584 164.336 288.584 166.28C288.584 168.224 288.254 169.97 287.594 171.518C286.946 173.066 285.974 174.29 284.678 175.19C283.382 176.09 281.768 176.54 279.836 176.54ZM280.628 172.184C281.72 172.184 282.59 171.938 283.238 171.446C283.898 170.954 284.372 170.264 284.66 169.376C284.948 168.488 285.092 167.456 285.092 166.28C285.092 165.104 284.948 164.072 284.66 163.184C284.372 162.296 283.91 161.606 283.274 161.114C282.65 160.622 281.828 160.376 280.808 160.376C279.716 160.376 278.816 160.646 278.108 161.186C277.412 161.714 276.896 162.428 276.56 163.328C276.224 164.216 276.056 165.2 276.056 166.28C276.056 167.372 276.218 168.368 276.542 169.268C276.866 170.156 277.364 170.864 278.036 171.392C278.708 171.92 279.572 172.184 280.628 172.184ZM162.283 218.54C160.363 218.54 158.629 218.204 157.081 217.532C155.545 216.848 154.279 215.876 153.283 214.616C152.299 213.344 151.675 211.832 151.411 210.08L156.523 209.324C156.883 210.812 157.627 211.958 158.755 212.762C159.883 213.566 161.167 213.968 162.607 213.968C163.411 213.968 164.191 213.842 164.947 213.59C165.703 213.338 166.321 212.966 166.801 212.474C167.293 211.982 167.539 211.376 167.539 210.656C167.539 210.392 167.497 210.14 167.413 209.9C167.341 209.648 167.215 209.414 167.035 209.198C166.855 208.982 166.597 208.778 166.261 208.586C165.937 208.394 165.523 208.22 165.019 208.064L158.287 206.084C157.783 205.94 157.195 205.736 156.523 205.472C155.863 205.208 155.221 204.83 154.597 204.338C153.973 203.846 153.451 203.198 153.031 202.394C152.623 201.578 152.419 200.552 152.419 199.316C152.419 197.576 152.857 196.13 153.733 194.978C154.609 193.826 155.779 192.968 157.243 192.404C158.707 191.84 160.327 191.564 162.103 191.576C163.891 191.6 165.487 191.906 166.891 192.494C168.295 193.082 169.471 193.94 170.419 195.068C171.367 196.184 172.051 197.552 172.471 199.172L167.179 200.072C166.987 199.232 166.633 198.524 166.117 197.948C165.601 197.372 164.983 196.934 164.263 196.634C163.555 196.334 162.811 196.172 162.031 196.148C161.263 196.124 160.537 196.232 159.853 196.472C159.181 196.7 158.629 197.036 158.197 197.48C157.777 197.924 157.567 198.452 157.567 199.064C157.567 199.628 157.741 200.09 158.089 200.45C158.437 200.798 158.875 201.08 159.403 201.296C159.931 201.512 160.471 201.692 161.023 201.836L165.523 203.06C166.195 203.24 166.939 203.48 167.755 203.78C168.571 204.068 169.351 204.476 170.095 205.004C170.851 205.52 171.469 206.204 171.949 207.056C172.441 207.908 172.687 208.988 172.687 210.296C172.687 211.688 172.393 212.906 171.805 213.95C171.229 214.982 170.449 215.84 169.465 216.524C168.481 217.196 167.365 217.7 166.117 218.036C164.881 218.372 163.603 218.54 162.283 218.54ZM188.307 218C186.963 218.252 185.643 218.36 184.347 218.324C183.063 218.3 181.911 218.078 180.891 217.658C179.883 217.226 179.115 216.536 178.587 215.588C178.107 214.7 177.855 213.8 177.831 212.888C177.807 211.964 177.795 210.92 177.795 209.756V193.16H182.691V209.468C182.691 210.224 182.697 210.908 182.709 211.52C182.733 212.12 182.859 212.6 183.087 212.96C183.519 213.644 184.209 214.016 185.157 214.076C186.105 214.136 187.155 214.088 188.307 213.932V218ZM174.483 202.34V198.56H188.307V202.34H174.483ZM200.585 218.54C198.593 218.54 196.835 218.114 195.311 217.262C193.799 216.398 192.611 215.216 191.747 213.716C190.895 212.204 190.469 210.476 190.469 208.532C190.469 206.408 190.889 204.56 191.729 202.988C192.569 201.416 193.727 200.198 195.203 199.334C196.679 198.458 198.377 198.02 200.297 198.02C202.337 198.02 204.071 198.5 205.499 199.46C206.927 200.42 207.983 201.77 208.667 203.51C209.351 205.25 209.591 207.296 209.387 209.648H204.545V207.848C204.545 205.868 204.227 204.446 203.591 203.582C202.967 202.706 201.941 202.268 200.513 202.268C198.845 202.268 197.615 202.778 196.823 203.798C196.043 204.806 195.653 206.3 195.653 208.28C195.653 210.092 196.043 211.496 196.823 212.492C197.615 213.476 198.773 213.968 200.297 213.968C201.257 213.968 202.079 213.758 202.763 213.338C203.447 212.918 203.969 212.312 204.329 211.52L209.225 212.924C208.493 214.7 207.335 216.08 205.751 217.064C204.179 218.048 202.457 218.54 200.585 218.54ZM194.141 209.648V206.012H207.029V209.648H194.141ZM222.464 218.54C220.532 218.54 218.918 218.09 217.622 217.19C216.326 216.29 215.348 215.066 214.688 213.518C214.04 211.97 213.716 210.224 213.716 208.28C213.716 206.336 214.04 204.59 214.688 203.042C215.336 201.494 216.29 200.27 217.55 199.37C218.81 198.47 220.364 198.02 222.212 198.02C224.072 198.02 225.692 198.464 227.072 199.352C228.452 200.24 229.52 201.458 230.276 203.006C231.044 204.542 231.428 206.3 231.428 208.28C231.428 210.224 231.05 211.97 230.294 213.518C229.55 215.066 228.506 216.29 227.162 217.19C225.818 218.09 224.252 218.54 222.464 218.54ZM212.888 226.64V198.56H217.208V211.88H217.82V226.64H212.888ZM221.672 214.184C222.728 214.184 223.592 213.92 224.264 213.392C224.936 212.864 225.434 212.156 225.758 211.268C226.082 210.368 226.244 209.372 226.244 208.28C226.244 207.2 226.076 206.216 225.74 205.328C225.404 204.428 224.882 203.714 224.174 203.186C223.478 202.646 222.584 202.376 221.492 202.376C220.472 202.376 219.644 202.622 219.008 203.114C218.384 203.606 217.928 204.296 217.64 205.184C217.352 206.072 217.208 207.104 217.208 208.28C217.208 209.456 217.352 210.488 217.64 211.376C217.928 212.264 218.396 212.954 219.044 213.446C219.704 213.938 220.58 214.184 221.672 214.184ZM242.458 218.54C240.01 218.54 238.03 217.988 236.518 216.884C235.018 215.768 234.106 214.196 233.782 212.168L238.786 211.412C238.99 212.324 239.44 213.038 240.136 213.554C240.844 214.07 241.738 214.328 242.818 214.328C243.706 214.328 244.39 214.16 244.87 213.824C245.35 213.476 245.59 212.996 245.59 212.384C245.59 212 245.494 211.694 245.302 211.466C245.11 211.226 244.678 210.992 244.006 210.764C243.346 210.536 242.314 210.236 240.91 209.864C239.326 209.456 238.06 209 237.112 208.496C236.164 207.992 235.48 207.392 235.06 206.696C234.64 205.988 234.43 205.136 234.43 204.14C234.43 202.892 234.748 201.812 235.384 200.9C236.02 199.976 236.914 199.268 238.066 198.776C239.23 198.272 240.598 198.02 242.17 198.02C243.694 198.02 245.044 198.254 246.22 198.722C247.396 199.19 248.344 199.856 249.064 200.72C249.796 201.584 250.246 202.604 250.414 203.78L245.41 204.68C245.326 203.96 245.014 203.39 244.474 202.97C243.934 202.55 243.202 202.304 242.278 202.232C241.378 202.172 240.652 202.292 240.1 202.592C239.56 202.892 239.29 203.324 239.29 203.888C239.29 204.224 239.404 204.506 239.632 204.734C239.872 204.962 240.358 205.196 241.09 205.436C241.834 205.676 242.962 205.988 244.474 206.372C245.95 206.756 247.132 207.206 248.02 207.722C248.92 208.226 249.574 208.838 249.982 209.558C250.39 210.266 250.594 211.124 250.594 212.132C250.594 214.124 249.874 215.69 248.434 216.83C246.994 217.97 245.002 218.54 242.458 218.54Z" fill="#2471FB"/>
<path d="M176.86 267.163L174.394 264.709L175.3 263.803L177.754 266.257L176.86 267.163ZM173.752 267.163C172.888 267.163 172.148 266.975 171.532 266.599C170.916 266.219 170.442 265.691 170.11 265.015C169.782 264.339 169.618 263.555 169.618 262.663C169.618 261.771 169.782 260.987 170.11 260.311C170.442 259.635 170.916 259.109 171.532 258.733C172.148 258.353 172.888 258.163 173.752 258.163C174.616 258.163 175.356 258.353 175.972 258.733C176.592 259.109 177.066 259.635 177.394 260.311C177.726 260.987 177.892 261.771 177.892 262.663C177.892 263.555 177.726 264.339 177.394 265.015C177.066 265.691 176.592 266.219 175.972 266.599C175.356 266.975 174.616 267.163 173.752 267.163ZM173.752 265.801C174.332 265.805 174.814 265.677 175.198 265.417C175.586 265.157 175.876 264.791 176.068 264.319C176.264 263.847 176.362 263.295 176.362 262.663C176.362 262.031 176.264 261.483 176.068 261.019C175.876 260.551 175.586 260.187 175.198 259.927C174.814 259.667 174.332 259.533 173.752 259.525C173.172 259.521 172.69 259.649 172.306 259.909C171.922 260.169 171.632 260.535 171.436 261.007C171.244 261.479 171.148 262.031 171.148 262.663C171.148 263.295 171.244 263.845 171.436 264.313C171.628 264.777 171.916 265.139 172.3 265.399C172.688 265.659 173.172 265.793 173.752 265.801ZM181.516 267.169C181.036 267.169 180.64 267.089 180.328 266.929C180.016 266.769 179.768 266.565 179.584 266.317C179.4 266.069 179.264 265.805 179.176 265.525C179.088 265.245 179.03 264.981 179.002 264.733C178.978 264.481 178.966 264.277 178.966 264.121V260.503H180.43V263.623C180.43 263.823 180.444 264.049 180.472 264.301C180.5 264.549 180.564 264.789 180.664 265.021C180.768 265.249 180.92 265.437 181.12 265.585C181.324 265.733 181.598 265.807 181.942 265.807C182.126 265.807 182.308 265.777 182.488 265.717C182.668 265.657 182.83 265.555 182.974 265.411C183.122 265.263 183.24 265.061 183.328 264.805C183.416 264.549 183.46 264.225 183.46 263.833L184.318 264.199C184.318 264.751 184.21 265.251 183.994 265.699C183.782 266.147 183.468 266.505 183.052 266.773C182.636 267.037 182.124 267.169 181.516 267.169ZM183.634 266.983V264.973H183.46V260.503H184.912V266.983H183.634ZM186.718 259.519V258.193H188.164V259.519H186.718ZM186.718 266.983V260.503H188.164V266.983H186.718ZM192.775 267.163C192.107 267.163 191.537 267.015 191.065 266.719C190.593 266.419 190.231 266.011 189.979 265.495C189.731 264.979 189.605 264.395 189.601 263.743C189.605 263.079 189.735 262.491 189.991 261.979C190.251 261.463 190.619 261.059 191.095 260.767C191.571 260.471 192.137 260.323 192.793 260.323C193.529 260.323 194.151 260.509 194.659 260.881C195.171 261.249 195.505 261.753 195.661 262.393L194.221 262.783C194.109 262.435 193.923 262.165 193.663 261.973C193.403 261.777 193.107 261.679 192.775 261.679C192.399 261.679 192.089 261.769 191.845 261.949C191.601 262.125 191.421 262.369 191.305 262.681C191.189 262.993 191.131 263.347 191.131 263.743C191.131 264.359 191.269 264.857 191.545 265.237C191.821 265.617 192.231 265.807 192.775 265.807C193.159 265.807 193.461 265.719 193.681 265.543C193.905 265.367 194.073 265.113 194.185 264.781L195.661 265.111C195.461 265.771 195.111 266.279 194.611 266.635C194.111 266.987 193.499 267.163 192.775 267.163ZM196.851 266.983L196.863 258.343H198.327V263.623L200.697 260.503H202.503L199.989 263.743L202.719 266.983H200.805L198.327 263.863V266.983H196.851ZM206.287 266.983V260.401C206.287 260.237 206.293 260.057 206.305 259.861C206.317 259.661 206.351 259.463 206.407 259.267C206.463 259.071 206.565 258.893 206.713 258.733C206.897 258.529 207.095 258.389 207.307 258.313C207.523 258.233 207.735 258.189 207.943 258.181C208.151 258.169 208.333 258.163 208.489 258.163H209.299V259.339H208.549C208.273 259.339 208.067 259.409 207.931 259.549C207.799 259.685 207.733 259.865 207.733 260.089V266.983H206.287ZM205.243 261.637V260.503H209.299V261.637H205.243ZM211.894 267.163C211.426 267.163 211.03 267.075 210.706 266.899C210.382 266.719 210.136 266.481 209.968 266.185C209.804 265.889 209.722 265.563 209.722 265.207C209.722 264.895 209.774 264.615 209.878 264.367C209.982 264.115 210.142 263.899 210.358 263.719C210.574 263.535 210.854 263.385 211.198 263.269C211.458 263.185 211.762 263.109 212.11 263.041C212.462 262.973 212.842 262.911 213.25 262.855C213.662 262.795 214.092 262.731 214.54 262.663L214.024 262.957C214.028 262.509 213.928 262.179 213.724 261.967C213.52 261.755 213.176 261.649 212.692 261.649C212.4 261.649 212.118 261.717 211.846 261.853C211.574 261.989 211.384 262.223 211.276 262.555L209.956 262.141C210.116 261.593 210.42 261.153 210.868 260.821C211.32 260.489 211.928 260.323 212.692 260.323C213.268 260.323 213.774 260.417 214.21 260.605C214.65 260.793 214.976 261.101 215.188 261.529C215.304 261.757 215.374 261.991 215.398 262.231C215.422 262.467 215.434 262.725 215.434 263.005V266.983H214.168V265.579L214.378 265.807C214.086 266.275 213.744 266.619 213.352 266.839C212.964 267.055 212.478 267.163 211.894 267.163ZM212.182 266.011C212.51 266.011 212.79 265.953 213.022 265.837C213.254 265.721 213.438 265.579 213.574 265.411C213.714 265.243 213.808 265.085 213.856 264.937C213.932 264.753 213.974 264.543 213.982 264.307C213.994 264.067 214 263.873 214 263.725L214.444 263.857C214.008 263.925 213.634 263.985 213.322 264.037C213.01 264.089 212.742 264.139 212.518 264.187C212.294 264.231 212.096 264.281 211.924 264.337C211.756 264.397 211.614 264.467 211.498 264.547C211.382 264.627 211.292 264.719 211.228 264.823C211.168 264.927 211.138 265.049 211.138 265.189C211.138 265.349 211.178 265.491 211.258 265.615C211.338 265.735 211.454 265.831 211.606 265.903C211.762 265.975 211.954 266.011 212.182 266.011ZM219.81 267.163C219.142 267.163 218.572 267.015 218.1 266.719C217.628 266.419 217.266 266.011 217.014 265.495C216.766 264.979 216.64 264.395 216.636 263.743C216.64 263.079 216.77 262.491 217.026 261.979C217.286 261.463 217.654 261.059 218.13 260.767C218.606 260.471 219.172 260.323 219.828 260.323C220.564 260.323 221.186 260.509 221.694 260.881C222.206 261.249 222.54 261.753 222.696 262.393L221.256 262.783C221.144 262.435 220.958 262.165 220.698 261.973C220.438 261.777 220.142 261.679 219.81 261.679C219.434 261.679 219.124 261.769 218.88 261.949C218.636 262.125 218.456 262.369 218.34 262.681C218.224 262.993 218.166 263.347 218.166 263.743C218.166 264.359 218.304 264.857 218.58 265.237C218.856 265.617 219.266 265.807 219.81 265.807C220.194 265.807 220.496 265.719 220.716 265.543C220.94 265.367 221.108 265.113 221.22 264.781L222.696 265.111C222.496 265.771 222.146 266.279 221.646 266.635C221.146 266.987 220.534 267.163 219.81 267.163ZM227.697 266.983C227.269 267.063 226.849 267.097 226.437 267.085C226.029 267.077 225.663 267.003 225.339 266.863C225.015 266.719 224.769 266.493 224.601 266.185C224.453 265.905 224.375 265.619 224.367 265.327C224.359 265.035 224.355 264.705 224.355 264.337V258.703H225.795V264.253C225.795 264.513 225.797 264.741 225.801 264.937C225.809 265.133 225.851 265.293 225.927 265.417C226.071 265.657 226.301 265.791 226.617 265.819C226.933 265.847 227.293 265.831 227.697 265.771V266.983ZM223.179 261.637V260.503H227.697V261.637H223.179ZM231.592 267.163C230.792 267.163 230.142 266.983 229.642 266.623C229.142 266.263 228.838 265.757 228.73 265.105L230.206 264.877C230.282 265.197 230.45 265.449 230.71 265.633C230.97 265.817 231.298 265.909 231.694 265.909C232.042 265.909 232.31 265.841 232.498 265.705C232.69 265.565 232.786 265.375 232.786 265.135C232.786 264.987 232.75 264.869 232.678 264.781C232.61 264.689 232.458 264.601 232.222 264.517C231.986 264.433 231.624 264.327 231.136 264.199C230.592 264.055 230.16 263.901 229.84 263.737C229.52 263.569 229.29 263.371 229.15 263.143C229.01 262.915 228.94 262.639 228.94 262.315C228.94 261.911 229.046 261.559 229.258 261.259C229.47 260.959 229.766 260.729 230.146 260.569C230.526 260.405 230.974 260.323 231.49 260.323C231.994 260.323 232.44 260.401 232.828 260.557C233.22 260.713 233.536 260.935 233.776 261.223C234.016 261.511 234.164 261.849 234.22 262.237L232.744 262.501C232.708 262.225 232.582 262.007 232.366 261.847C232.154 261.687 231.87 261.597 231.514 261.577C231.174 261.557 230.9 261.609 230.692 261.733C230.484 261.853 230.38 262.023 230.38 262.243C230.38 262.367 230.422 262.473 230.506 262.561C230.59 262.649 230.758 262.737 231.01 262.825C231.266 262.913 231.646 263.021 232.15 263.149C232.666 263.281 233.078 263.433 233.386 263.605C233.698 263.773 233.922 263.975 234.058 264.211C234.198 264.447 234.268 264.733 234.268 265.069C234.268 265.721 234.03 266.233 233.554 266.605C233.082 266.977 232.428 267.163 231.592 267.163Z" fill="#5A5B70"/>
<circle cx="202" cy="278.983" r="3" fill="#2471FB"/>
<path d="M161.256 301.983V293.343H164.826C164.91 293.343 165.018 293.347 165.15 293.355C165.282 293.359 165.404 293.371 165.516 293.391C166.016 293.467 166.428 293.633 166.752 293.889C167.08 294.145 167.322 294.469 167.478 294.861C167.638 295.249 167.718 295.681 167.718 296.157C167.718 296.629 167.638 297.061 167.478 297.453C167.318 297.841 167.074 298.163 166.746 298.419C166.422 298.675 166.012 298.841 165.516 298.917C165.404 298.933 165.28 298.945 165.144 298.953C165.012 298.961 164.906 298.965 164.826 298.965H162.702V301.983H161.256ZM162.702 297.615H164.766C164.846 297.615 164.936 297.611 165.036 297.603C165.136 297.595 165.228 297.579 165.312 297.555C165.552 297.495 165.74 297.389 165.876 297.237C166.016 297.085 166.114 296.913 166.17 296.721C166.23 296.529 166.26 296.341 166.26 296.157C166.26 295.973 166.23 295.785 166.17 295.593C166.114 295.397 166.016 295.223 165.876 295.071C165.74 294.919 165.552 294.813 165.312 294.753C165.228 294.729 165.136 294.715 165.036 294.711C164.936 294.703 164.846 294.699 164.766 294.699H162.702V297.615ZM170.568 302.163C170.1 302.163 169.704 302.075 169.38 301.899C169.056 301.719 168.81 301.481 168.642 301.185C168.478 300.889 168.396 300.563 168.396 300.207C168.396 299.895 168.448 299.615 168.552 299.367C168.656 299.115 168.816 298.899 169.032 298.719C169.248 298.535 169.528 298.385 169.872 298.269C170.132 298.185 170.436 298.109 170.784 298.041C171.136 297.973 171.516 297.911 171.924 297.855C172.336 297.795 172.766 297.731 173.214 297.663L172.698 297.957C172.702 297.509 172.602 297.179 172.398 296.967C172.194 296.755 171.85 296.649 171.366 296.649C171.074 296.649 170.792 296.717 170.52 296.853C170.248 296.989 170.058 297.223 169.95 297.555L168.63 297.141C168.79 296.593 169.094 296.153 169.542 295.821C169.994 295.489 170.602 295.323 171.366 295.323C171.942 295.323 172.448 295.417 172.884 295.605C173.324 295.793 173.65 296.101 173.862 296.529C173.978 296.757 174.048 296.991 174.072 297.231C174.096 297.467 174.108 297.725 174.108 298.005V301.983H172.842V300.579L173.052 300.807C172.76 301.275 172.418 301.619 172.026 301.839C171.638 302.055 171.152 302.163 170.568 302.163ZM170.856 301.011C171.184 301.011 171.464 300.953 171.696 300.837C171.928 300.721 172.112 300.579 172.248 300.411C172.388 300.243 172.482 300.085 172.53 299.937C172.606 299.753 172.648 299.543 172.656 299.307C172.668 299.067 172.674 298.873 172.674 298.725L173.118 298.857C172.682 298.925 172.308 298.985 171.996 299.037C171.684 299.089 171.416 299.139 171.192 299.187C170.968 299.231 170.77 299.281 170.598 299.337C170.43 299.397 170.288 299.467 170.172 299.547C170.056 299.627 169.966 299.719 169.902 299.823C169.842 299.927 169.812 300.049 169.812 300.189C169.812 300.349 169.852 300.491 169.932 300.615C170.012 300.735 170.128 300.831 170.28 300.903C170.436 300.975 170.628 301.011 170.856 301.011ZM179.468 301.983C179.04 302.063 178.62 302.097 178.208 302.085C177.8 302.077 177.434 302.003 177.11 301.863C176.786 301.719 176.54 301.493 176.372 301.185C176.224 300.905 176.146 300.619 176.138 300.327C176.13 300.035 176.126 299.705 176.126 299.337V293.703H177.566V299.253C177.566 299.513 177.568 299.741 177.572 299.937C177.58 300.133 177.622 300.293 177.698 300.417C177.842 300.657 178.072 300.791 178.388 300.819C178.704 300.847 179.064 300.831 179.468 300.771V301.983ZM174.95 296.637V295.503H179.468V296.637H174.95ZM180.981 294.519V293.193H182.427V294.519H180.981ZM180.981 301.983V295.503H182.427V301.983H180.981ZM187.171 302.163C186.515 302.163 185.939 302.021 185.443 301.737C184.947 301.453 184.559 301.059 184.279 300.555C184.003 300.051 183.865 299.471 183.865 298.815C183.865 298.107 184.001 297.493 184.273 296.973C184.545 296.449 184.923 296.043 185.407 295.755C185.891 295.467 186.451 295.323 187.087 295.323C187.759 295.323 188.329 295.481 188.797 295.797C189.269 296.109 189.619 296.551 189.847 297.123C190.075 297.695 190.161 298.369 190.105 299.145H188.671V298.617C188.667 297.913 188.543 297.399 188.299 297.075C188.055 296.751 187.671 296.589 187.147 296.589C186.555 296.589 186.115 296.773 185.827 297.141C185.539 297.505 185.395 298.039 185.395 298.743C185.395 299.399 185.539 299.907 185.827 300.267C186.115 300.627 186.535 300.807 187.087 300.807C187.443 300.807 187.749 300.729 188.005 300.573C188.265 300.413 188.465 300.183 188.605 299.883L190.033 300.315C189.785 300.899 189.401 301.353 188.881 301.677C188.365 302.001 187.795 302.163 187.171 302.163ZM184.939 299.145V298.053H189.397V299.145H184.939ZM195.75 301.983V298.863C195.75 298.659 195.736 298.433 195.708 298.185C195.68 297.937 195.614 297.699 195.51 297.471C195.41 297.239 195.258 297.049 195.054 296.901C194.854 296.753 194.582 296.679 194.238 296.679C194.054 296.679 193.872 296.709 193.692 296.769C193.512 296.829 193.348 296.933 193.2 297.081C193.056 297.225 192.94 297.425 192.852 297.681C192.764 297.933 192.72 298.257 192.72 298.653L191.862 298.287C191.862 297.735 191.968 297.235 192.18 296.787C192.396 296.339 192.712 295.983 193.128 295.719C193.544 295.451 194.056 295.317 194.664 295.317C195.144 295.317 195.54 295.397 195.852 295.557C196.164 295.717 196.412 295.921 196.596 296.169C196.78 296.417 196.916 296.681 197.004 296.961C197.092 297.241 197.148 297.507 197.172 297.759C197.2 298.007 197.214 298.209 197.214 298.365V301.983H195.75ZM191.256 301.983V295.503H192.546V297.513H192.72V301.983H191.256ZM202.577 301.983C202.149 302.063 201.729 302.097 201.317 302.085C200.909 302.077 200.543 302.003 200.219 301.863C199.895 301.719 199.649 301.493 199.481 301.185C199.333 300.905 199.255 300.619 199.247 300.327C199.239 300.035 199.235 299.705 199.235 299.337V293.703H200.675V299.253C200.675 299.513 200.677 299.741 200.681 299.937C200.689 300.133 200.731 300.293 200.807 300.417C200.951 300.657 201.181 300.791 201.497 300.819C201.813 300.847 202.173 300.831 202.577 300.771V301.983ZM198.059 296.637V295.503H202.577V296.637H198.059ZM209.571 302.163C208.939 302.163 208.369 302.053 207.861 301.833C207.357 301.613 206.941 301.299 206.613 300.891C206.289 300.479 206.083 299.991 205.995 299.427L207.495 299.199C207.623 299.711 207.885 300.107 208.281 300.387C208.681 300.667 209.141 300.807 209.661 300.807C209.969 300.807 210.259 300.759 210.531 300.663C210.803 300.567 211.023 300.427 211.191 300.243C211.363 300.059 211.449 299.833 211.449 299.565C211.449 299.445 211.429 299.335 211.389 299.235C211.349 299.131 211.289 299.039 211.209 298.959C211.133 298.879 211.033 298.807 210.909 298.743C210.789 298.675 210.649 298.617 210.489 298.569L208.257 297.909C208.065 297.853 207.857 297.779 207.633 297.687C207.413 297.591 207.203 297.461 207.003 297.297C206.807 297.129 206.645 296.917 206.517 296.661C206.393 296.401 206.331 296.081 206.331 295.701C206.331 295.145 206.471 294.679 206.751 294.303C207.035 293.923 207.415 293.639 207.891 293.451C208.371 293.263 208.903 293.171 209.487 293.175C210.079 293.179 210.607 293.281 211.071 293.481C211.535 293.677 211.923 293.963 212.235 294.339C212.547 294.715 212.767 295.169 212.895 295.701L211.341 295.971C211.277 295.667 211.153 295.409 210.969 295.197C210.789 294.981 210.567 294.817 210.303 294.705C210.043 294.593 209.765 294.533 209.469 294.525C209.181 294.521 208.913 294.565 208.665 294.657C208.421 294.745 208.223 294.873 208.071 295.041C207.923 295.209 207.849 295.405 207.849 295.629C207.849 295.841 207.913 296.015 208.041 296.151C208.169 296.283 208.327 296.389 208.515 296.469C208.707 296.545 208.901 296.609 209.097 296.661L210.645 297.093C210.857 297.149 211.095 297.225 211.359 297.321C211.623 297.417 211.877 297.551 212.121 297.723C212.365 297.895 212.565 298.121 212.721 298.401C212.881 298.681 212.961 299.037 212.961 299.469C212.961 299.917 212.867 300.311 212.679 300.651C212.495 300.987 212.245 301.267 211.929 301.491C211.613 301.715 211.251 301.883 210.843 301.995C210.439 302.107 210.015 302.163 209.571 302.163ZM216.072 302.163C215.604 302.163 215.208 302.075 214.884 301.899C214.56 301.719 214.314 301.481 214.146 301.185C213.982 300.889 213.9 300.563 213.9 300.207C213.9 299.895 213.952 299.615 214.056 299.367C214.16 299.115 214.32 298.899 214.536 298.719C214.752 298.535 215.032 298.385 215.376 298.269C215.636 298.185 215.94 298.109 216.288 298.041C216.64 297.973 217.02 297.911 217.428 297.855C217.84 297.795 218.27 297.731 218.718 297.663L218.202 297.957C218.206 297.509 218.106 297.179 217.902 296.967C217.698 296.755 217.354 296.649 216.87 296.649C216.578 296.649 216.296 296.717 216.024 296.853C215.752 296.989 215.562 297.223 215.454 297.555L214.134 297.141C214.294 296.593 214.598 296.153 215.046 295.821C215.498 295.489 216.106 295.323 216.87 295.323C217.446 295.323 217.952 295.417 218.388 295.605C218.828 295.793 219.154 296.101 219.366 296.529C219.482 296.757 219.552 296.991 219.576 297.231C219.6 297.467 219.612 297.725 219.612 298.005V301.983H218.346V300.579L218.556 300.807C218.264 301.275 217.922 301.619 217.53 301.839C217.142 302.055 216.656 302.163 216.072 302.163ZM216.36 301.011C216.688 301.011 216.968 300.953 217.2 300.837C217.432 300.721 217.616 300.579 217.752 300.411C217.892 300.243 217.986 300.085 218.034 299.937C218.11 299.753 218.152 299.543 218.16 299.307C218.172 299.067 218.178 298.873 218.178 298.725L218.622 298.857C218.186 298.925 217.812 298.985 217.5 299.037C217.188 299.089 216.92 299.139 216.696 299.187C216.472 299.231 216.274 299.281 216.102 299.337C215.934 299.397 215.792 299.467 215.676 299.547C215.56 299.627 215.47 299.719 215.406 299.823C215.346 299.927 215.316 300.049 215.316 300.189C215.316 300.349 215.356 300.491 215.436 300.615C215.516 300.735 215.632 300.831 215.784 300.903C215.94 300.975 216.132 301.011 216.36 301.011ZM221.738 301.983V295.401C221.738 295.237 221.744 295.057 221.756 294.861C221.768 294.661 221.802 294.463 221.858 294.267C221.914 294.071 222.016 293.893 222.164 293.733C222.348 293.529 222.546 293.389 222.758 293.313C222.974 293.233 223.186 293.189 223.394 293.181C223.602 293.169 223.784 293.163 223.94 293.163H224.75V294.339H224C223.724 294.339 223.518 294.409 223.382 294.549C223.25 294.685 223.184 294.865 223.184 295.089V301.983H221.738ZM220.694 296.637V295.503H224.75V296.637H220.694ZM228.421 302.163C227.765 302.163 227.189 302.021 226.693 301.737C226.197 301.453 225.809 301.059 225.529 300.555C225.253 300.051 225.115 299.471 225.115 298.815C225.115 298.107 225.251 297.493 225.523 296.973C225.795 296.449 226.173 296.043 226.657 295.755C227.141 295.467 227.701 295.323 228.337 295.323C229.009 295.323 229.579 295.481 230.047 295.797C230.519 296.109 230.869 296.551 231.097 297.123C231.325 297.695 231.411 298.369 231.355 299.145H229.921V298.617C229.917 297.913 229.793 297.399 229.549 297.075C229.305 296.751 228.921 296.589 228.397 296.589C227.805 296.589 227.365 296.773 227.077 297.141C226.789 297.505 226.645 298.039 226.645 298.743C226.645 299.399 226.789 299.907 227.077 300.267C227.365 300.627 227.785 300.807 228.337 300.807C228.693 300.807 228.999 300.729 229.255 300.573C229.515 300.413 229.715 300.183 229.855 299.883L231.283 300.315C231.035 300.899 230.651 301.353 230.131 301.677C229.615 302.001 229.045 302.163 228.421 302.163ZM226.189 299.145V298.053H230.647V299.145H226.189ZM236.492 301.983C236.064 302.063 235.644 302.097 235.232 302.085C234.824 302.077 234.458 302.003 234.134 301.863C233.81 301.719 233.564 301.493 233.396 301.185C233.248 300.905 233.17 300.619 233.162 300.327C233.154 300.035 233.15 299.705 233.15 299.337V293.703H234.59V299.253C234.59 299.513 234.592 299.741 234.596 299.937C234.604 300.133 234.646 300.293 234.722 300.417C234.866 300.657 235.096 300.791 235.412 300.819C235.728 300.847 236.088 300.831 236.492 300.771V301.983ZM231.974 296.637V295.503H236.492V296.637H231.974ZM238.561 304.863L239.809 301.437L239.833 302.445L237.007 295.503H238.513L240.517 300.639H240.133L242.083 295.503H243.529L239.917 304.863H238.561Z" fill="#5A5B70"/>
</g>
<defs>
<filter id="filter0_d" x="311" y="93.9829" width="86" height="86" filterUnits="userSpaceOnUse" color-interpolation-filters="sRGB">
<feFlood flood-opacity="0" result="BackgroundImageFix"/>
<feColorMatrix in="SourceAlpha" type="matrix" values="0 0 0 0 0 0 0 0 0 0 0 0 0 0 0 0 0 0 127 0" result="hardAlpha"/>
<feOffset dy="9"/>
<feGaussianBlur stdDeviation="7.5"/>
<feColorMatrix type="matrix" values="0 0 0 0 0 0 0 0 0 0.0992429 0 0 0 0 0.335469 0 0 0 0.258504 0"/>
<feBlend mode="normal" in2="BackgroundImageFix" result="effect1_dropShadow"/>
<feBlend mode="normal" in="SourceGraphic" in2="effect1_dropShadow" result="shape"/>
</filter>
<filter id="filter1_d" x="327" y="102.983" width="55" height="55" filterUnits="userSpaceOnUse" color-interpolation-filters="sRGB">
<feFlood flood-opacity="0" result="BackgroundImageFix"/>
<feColorMatrix in="SourceAlpha" type="matrix" values="0 0 0 0 0 0 0 0 0 0 0 0 0 0 0 0 0 0 127 0" result="hardAlpha"/>
<feOffset dy="2"/>
<feGaussianBlur stdDeviation="4.5"/>
<feColorMatrix type="matrix" values="0 0 0 0 0 0 0 0 0 0.0992429 0 0 0 0 0.335469 0 0 0 0.258504 0"/>
<feBlend mode="normal" in2="BackgroundImageFix" result="effect1_dropShadow"/>
<feBlend mode="normal" in="SourceGraphic" in2="effect1_dropShadow" result="shape"/>
</filter>
<filter id="filter2_d" x="303" y="263.983" width="86" height="86" filterUnits="userSpaceOnUse" color-interpolation-filters="sRGB">
<feFlood flood-opacity="0" result="BackgroundImageFix"/>
<feColorMatrix in="SourceAlpha" type="matrix" values="0 0 0 0 0 0 0 0 0 0 0 0 0 0 0 0 0 0 127 0" result="hardAlpha"/>
<feOffset dy="9"/>
<feGaussianBlur stdDeviation="7.5"/>
<feColorMatrix type="matrix" values="0 0 0 0 0 0 0 0 0 0.0992429 0 0 0 0 0.335469 0 0 0 0.258504 0"/>
<feBlend mode="normal" in2="BackgroundImageFix" result="effect1_dropShadow"/>
<feBlend mode="normal" in="SourceGraphic" in2="effect1_dropShadow" result="shape"/>
</filter>
<filter id="filter3_d" x="319" y="272.983" width="55" height="55" filterUnits="userSpaceOnUse" color-interpolation-filters="sRGB">
<feFlood flood-opacity="0" result="BackgroundImageFix"/>
<feColorMatrix in="SourceAlpha" type="matrix" values="0 0 0 0 0 0 0 0 0 0 0 0 0 0 0 0 0 0 127 0" result="hardAlpha"/>
<feOffset dy="2"/>
<feGaussianBlur stdDeviation="4.5"/>
<feColorMatrix type="matrix" values="0 0 0 0 0 0 0 0 0 0.0992429 0 0 0 0 0.335469 0 0 0 0.258504 0"/>
<feBlend mode="normal" in2="BackgroundImageFix" result="effect1_dropShadow"/>
<feBlend mode="normal" in="SourceGraphic" in2="effect1_dropShadow" result="shape"/>
</filter>
<filter id="filter4_d" x="15" y="263.983" width="86" height="86" filterUnits="userSpaceOnUse" color-interpolation-filters="sRGB">
<feFlood flood-opacity="0" result="BackgroundImageFix"/>
<feColorMatrix in="SourceAlpha" type="matrix" values="0 0 0 0 0 0 0 0 0 0 0 0 0 0 0 0 0 0 127 0" result="hardAlpha"/>
<feOffset dy="9"/>
<feGaussianBlur stdDeviation="7.5"/>
<feColorMatrix type="matrix" values="0 0 0 0 0 0 0 0 0 0.0992429 0 0 0 0 0.335469 0 0 0 0.258504 0"/>
<feBlend mode="normal" in2="BackgroundImageFix" result="effect1_dropShadow"/>
<feBlend mode="normal" in="SourceGraphic" in2="effect1_dropShadow" result="shape"/>
</filter>
<filter id="filter5_d" x="31" y="272.983" width="55" height="55" filterUnits="userSpaceOnUse" color-interpolation-filters="sRGB">
<feFlood flood-opacity="0" result="BackgroundImageFix"/>
<feColorMatrix in="SourceAlpha" type="matrix" values="0 0 0 0 0 0 0 0 0 0 0 0 0 0 0 0 0 0 127 0" result="hardAlpha"/>
<feOffset dy="2"/>
<feGaussianBlur stdDeviation="4.5"/>
<feColorMatrix type="matrix" values="0 0 0 0 0 0 0 0 0 0.0992429 0 0 0 0 0.335469 0 0 0 0.258504 0"/>
<feBlend mode="normal" in2="BackgroundImageFix" result="effect1_dropShadow"/>
<feBlend mode="normal" in="SourceGraphic" in2="effect1_dropShadow" result="shape"/>
</filter>
<filter id="filter6_d" x="0" y="93.9829" width="86" height="86" filterUnits="userSpaceOnUse" color-interpolation-filters="sRGB">
<feFlood flood-opacity="0" result="BackgroundImageFix"/>
<feColorMatrix in="SourceAlpha" type="matrix" values="0 0 0 0 0 0 0 0 0 0 0 0 0 0 0 0 0 0 127 0" result="hardAlpha"/>
<feOffset dy="9"/>
<feGaussianBlur stdDeviation="7.5"/>
<feColorMatrix type="matrix" values="0 0 0 0 0 0 0 0 0 0.0992429 0 0 0 0 0.335469 0 0 0 0.258504 0"/>
<feBlend mode="normal" in2="BackgroundImageFix" result="effect1_dropShadow"/>
<feBlend mode="normal" in="SourceGraphic" in2="effect1_dropShadow" result="shape"/>
</filter>
<filter id="filter7_d" x="16" y="102.983" width="55" height="55" filterUnits="userSpaceOnUse" color-interpolation-filters="sRGB">
<feFlood flood-opacity="0" result="BackgroundImageFix"/>
<feColorMatrix in="SourceAlpha" type="matrix" values="0 0 0 0 0 0 0 0 0 0 0 0 0 0 0 0 0 0 127 0" result="hardAlpha"/>
<feOffset dy="2"/>
<feGaussianBlur stdDeviation="4.5"/>
<feColorMatrix type="matrix" values="0 0 0 0 0 0 0 0 0 0.0992429 0 0 0 0 0.335469 0 0 0 0.258504 0"/>
<feBlend mode="normal" in2="BackgroundImageFix" result="effect1_dropShadow"/>
<feBlend mode="normal" in="SourceGraphic" in2="effect1_dropShadow" result="shape"/>
</filter>
<clipPath id="clip0">
<rect width="182" height="164.983" fill="white" transform="translate(110 141)"/>
</clipPath>
</defs>
</svg>
