<svg width="1720" height="583" viewBox="0 0 1720 583" fill="none" xmlns="http://www.w3.org/2000/svg">
<path opacity="0.0525629" fill-rule="evenodd" clip-rule="evenodd" d="M1686.87 12.5815C1685.65 9.86248 1683.17 8.0231 1680.38 7.76986L1603.88 0.811322C1601.22 0.569133 1598.66 1.81392 1597.12 4.10353L1553.14 69.4138C1551.51 71.8329 1551.26 75.044 1552.49 77.7914L1584.7 149.607C1585.92 152.326 1588.4 154.166 1591.18 154.419L1667.69 161.377C1670.35 161.62 1672.9 160.375 1674.45 158.085L1718.43 92.7748C1720.06 90.3558 1720.31 87.1446 1719.08 84.3973L1705.18 53.4146L1686.87 12.5815ZM345.175 193.72C343.956 191.001 341.478 189.162 338.694 188.908L129.001 169.835C126.339 169.593 123.782 170.838 122.24 173.127L1.56756 352.302C-0.0616505 354.721 -0.308389 357.932 0.923849 360.68L89.6382 558.475C90.8578 561.194 93.3354 563.033 96.1195 563.286L305.812 582.36C308.475 582.602 311.031 581.357 312.573 579.068L433.246 399.893C434.875 397.474 435.122 394.263 433.889 391.515L395.172 305.192L345.175 193.72Z" fill="#387EFA"/>
</svg>
