<svg width="31" height="24" viewBox="0 0 31 24" fill="none" xmlns="http://www.w3.org/2000/svg">
<path d="M6.24219 2.25H22.7422V4.5H24.9922V1.5C24.9453 0.703125 24.2891 0.046875 23.4922 0H5.49219C4.64844 0.046875 3.99219 0.703125 3.99219 1.5V13.5H1.74219C1.32031 13.5 0.992188 13.875 0.992188 14.25V15C0.992188 16.6875 2.30469 18 3.94531 18H17.4922V13.5H6.24219V2.25ZM29.3047 6H20.6797C19.7422 6 18.9922 6.79688 18.9922 7.6875V22.3125C18.9922 23.25 19.7422 24 20.6797 24H29.3047C30.1953 24 30.9922 23.25 30.9922 22.3125V7.6875C30.9922 6.79688 30.1953 6 29.3047 6ZM28.7422 21.75H21.2422V8.25H28.7422V21.75Z" fill="white"/>
</svg>
