<svg width="30" height="24" viewBox="0 0 30 24" fill="none" xmlns="http://www.w3.org/2000/svg">
<path d="M22.5 15C24.9375 15 27 12.9844 27 10.5C27 8.0625 24.9375 6 22.5 6C20.0156 6 18 8.0625 18 10.5C18 12.9844 20.0156 15 22.5 15ZM22.5 8.25C23.7188 8.25 24.75 9.28125 24.75 10.5C24.75 11.7656 23.7188 12.75 22.5 12.75C21.2344 12.75 20.25 11.7656 20.25 10.5C20.25 9.28125 21.2344 8.29688 22.5 8.25ZM29.2031 17.9062C28.4062 16.6875 27.0469 16.0312 25.5938 16.0312C25.125 16.0781 24.6562 16.125 24.2344 16.2656C23.6719 16.4531 23.0625 16.5 22.4531 16.5C21.8906 16.5 21.2812 16.4531 20.7188 16.2656C20.2969 16.125 19.8281 16.0312 19.3594 16.0312C17.9062 16.0312 16.5469 16.6875 15.75 17.9062C15.2812 18.6094 15 19.4531 15 20.3906V22.125C15 23.2031 15.7969 24 16.875 24H28.125C29.1562 24 30 23.2031 30 22.125V20.3906C30 19.4531 29.6719 18.6094 29.2031 17.9062ZM27.75 21.75H17.25V20.3906C17.25 19.9219 17.3906 19.5 17.625 19.125C17.9531 18.6094 18.6094 18.2812 19.3594 18.2812C19.5938 18.2812 19.8281 18.3281 20.0625 18.4219C20.8594 18.6562 21.6562 18.75 22.4531 18.75C23.2969 18.75 24.0938 18.6562 24.8906 18.4219C25.125 18.3281 25.3594 18.3281 25.5938 18.3281V18.2812C26.3438 18.2812 27 18.6094 27.3281 19.125C27.5625 19.5 27.7031 19.9219 27.7031 20.3906H27.75V21.75ZM6.9375 10.5H5.0625C4.73438 10.5 4.5 10.7812 4.5 11.0625V12.9375C4.5 13.2656 4.73438 13.5 5.0625 13.5H6.9375C7.21875 13.5 7.5 13.2656 7.5 12.9375V11.0625C7.5 10.7812 7.21875 10.5 6.9375 10.5ZM6.9375 15H5.0625C4.73438 15 4.5 15.2812 4.5 15.5625V17.4375C4.5 17.7656 4.73438 18 5.0625 18H6.9375C7.21875 18 7.5 17.7656 7.5 17.4375V15.5625C7.5 15.2812 7.21875 15 6.9375 15ZM6.9375 19.5H5.0625C4.73438 19.5 4.5 19.7812 4.5 20.0625V21.9375C4.5 22.2656 4.73438 22.5 5.0625 22.5H6.9375C7.21875 22.5 7.5 22.2656 7.5 21.9375V20.0625C7.5 19.7812 7.21875 19.5 6.9375 19.5ZM11.4375 15H9.5625C9.23438 15 9 15.2812 9 15.5625V17.4375C9 17.7656 9.23438 18 9.5625 18H11.4375C11.7188 18 12 17.7656 12 17.4375V15.5625C12 15.2812 11.7188 15 11.4375 15ZM11.4375 10.5H9.5625C9.23438 10.5 9 10.7812 9 11.0625V12.9375C9 13.2656 9.23438 13.5 9.5625 13.5H11.4375C11.7188 13.5 12 13.2656 12 12.9375V11.0625C12 10.7812 11.7188 10.5 11.4375 10.5ZM16.5 15.2812V6C16.5 5.20312 15.7969 4.5 15 4.5H14.25V1.5C14.25 0.703125 13.5469 0 12.75 0H3.75C2.90625 0 2.25 0.703125 2.25 1.5V4.5H1.5C0.65625 4.5 0 5.20312 0 6V23.25C0 23.6719 0.328125 24 0.75 24H1.5C1.875 24 2.25 23.6719 2.25 23.25V6.75H4.5V2.25H12V6.75H14.25V17.5312C14.2969 17.3438 14.3906 17.2031 14.4844 17.0625C15 16.3125 15.7031 15.7031 16.5 15.2812ZM11.4375 19.5H9.5625C9.23438 19.5 9 19.7812 9 20.0625V21.9375C9 22.2656 9.23438 22.5 9.5625 22.5H11.4375C11.7188 22.5 12 22.2656 12 21.9375V20.0625C12 19.7812 11.7188 19.5 11.4375 19.5ZM9 6.75H10.2188C10.3594 6.75 10.5 6.65625 10.5 6.46875V5.53125C10.5 5.39062 10.3594 5.25 10.2188 5.25H9V4.03125C9 3.89062 8.85938 3.75 8.71875 3.75H7.78125C7.59375 3.75 7.5 3.89062 7.5 4.03125V5.25H6.28125C6.09375 5.25 6 5.39062 6 5.53125V6.46875C6 6.65625 6.09375 6.75 6.28125 6.75H7.5V7.96875C7.5 8.15625 7.59375 8.25 7.78125 8.25H8.71875C8.85938 8.25 9 8.15625 9 7.96875V6.75Z" fill="#2471FB"/>
</svg>
