<svg width="24" height="19" viewBox="0 0 24 19" fill="none" xmlns="http://www.w3.org/2000/svg">
<path d="M6.75 2.25V4.6875H2.25C0.984375 4.6875 0 5.71875 0 6.9375V11.1094C0 12.3281 0.984375 13.3594 2.25 13.3594H6.75V15.75C6.75 17.7656 9.14062 18.75 10.5469 17.3438L17.2969 10.5938C18.1875 9.75 18.1875 8.29688 17.2969 7.40625L10.5469 0.65625C9.14062 -0.75 6.75 0.28125 6.75 2.25ZM15.75 9L9 15.75V11.1094H2.25V6.9375H9V2.25L15.75 9ZM19.5 18C21.9844 18 24 15.9844 24 13.5V4.5C24 2.01562 21.9844 0 19.5 0H15.5625C15.2344 0 15 0.28125 15 0.5625V1.6875C15 2.01562 15.2344 2.25 15.5625 2.25H19.5C20.7188 2.25 21.75 3.28125 21.75 4.5V13.5C21.75 14.7656 20.7188 15.75 19.5 15.75H15.5625C15.2344 15.75 15 16.0312 15 16.3125V17.4375C15 17.7656 15.2344 18 15.5625 18H19.5Z" fill="#2471FB"/>
</svg>
