<svg width="22" height="25" viewBox="0 0 22 25" fill="none" xmlns="http://www.w3.org/2000/svg">
<path d="M11 13.5C14.7031 13.5 17.75 10.5 17.75 6.75C17.75 3.04688 14.7031 0 11 0C7.25 0 4.25 3.04688 4.25 6.75C4.25 10.5 7.25 13.5 11 13.5ZM11 2.25C13.4375 2.25 15.5 4.3125 15.5 6.75C15.5 9.23438 13.4375 11.25 11 11.25C8.51562 11.25 6.5 9.23438 6.5 6.75C6.5 4.3125 8.51562 2.25 11 2.25ZM15.1719 14.25C14.6562 14.25 14.1406 14.3906 13.6719 14.5781C12.8281 14.8594 11.9375 15 11 15C10.0156 15 9.125 14.8594 8.28125 14.5781C7.8125 14.3906 7.29688 14.25 6.78125 14.25C3.3125 14.25 0.5 17.1094 0.5 20.5781V22.875C0.5 23.5312 0.96875 24 1.625 24C2.23438 24 2.75 23.5312 2.75 22.875V20.5781C2.75 18.4219 4.39062 16.6875 6.5 16.5469V18.8906C5.375 19.2188 4.625 20.2031 4.625 21.375C4.625 22.8281 5.79688 24 7.25 24C8.65625 24 9.875 22.8281 9.875 21.375C9.875 20.2031 9.07812 19.2188 8 18.8906V16.7812C8.9375 17.1094 9.96875 17.25 11 17.25C11.9844 17.25 13.0156 17.1094 14 16.7812V18.5156C12.6406 18.8438 11.75 20.1094 11.75 21.5156V22.875C11.75 23.1094 11.7969 23.2969 11.9375 23.4375L12.4531 23.9062C12.5938 24.0469 12.8281 24.0469 12.9688 23.9062L13.4844 23.3906C13.625 23.25 13.625 23.0156 13.4844 22.8281L13.2031 22.5938V21.375C13.2031 20.4844 14.0469 19.7812 14.9844 19.9219C15.7344 20.0156 16.2031 20.7188 16.2031 21.4688V22.5938L15.9688 22.8281C15.8281 23.0156 15.8281 23.25 15.9688 23.3906L16.4844 23.9062C16.625 24.0469 16.8594 24.0469 17 23.9062L17.5156 23.4375C17.6562 23.2969 17.7031 23.1094 17.7031 22.875V21.375C17.7031 20.0156 16.7656 18.8438 15.4531 18.5156V16.5469C17.5625 16.6875 19.2031 18.4219 19.2031 20.5781V22.875C19.2031 23.5312 19.7188 24 20.3281 24C20.9844 24 21.4531 23.5312 21.4531 22.875V20.5781C21.5 17.1094 18.6406 14.25 15.1719 14.25ZM8.375 21.375C8.375 22.0312 7.85938 22.5 7.25 22.5C6.59375 22.5 6.125 22.0312 6.125 21.375C6.125 20.7656 6.59375 20.25 7.25 20.25C7.85938 20.25 8.375 20.7656 8.375 21.375Z" fill="#2471FB"/>
</svg>
