<svg width="28" height="24" viewBox="0 0 28 24" fill="none" xmlns="http://www.w3.org/2000/svg">
<path d="M27.125 7.875L25.625 6.375C25.1562 5.90625 24.4062 5.90625 23.9375 6.375L22.6719 7.64062L25.8594 10.8281L27.125 9.5625C27.5938 9.09375 27.5938 8.34375 27.125 7.875ZM15.9219 14.3438C15.5469 14.7188 15.2656 15.1406 15.125 15.6562L14.4219 18H13.25C13.0625 18 12.875 17.9062 12.7812 17.7188C12.2188 16.5938 10.625 16.3125 9.6875 17.0625L9.03125 15.0938C8.89062 14.625 8.46875 14.3438 7.95312 14.3438C7.48438 14.3438 7.0625 14.625 6.92188 15.0938L6.07812 17.6719C5.98438 17.8594 5.79688 18 5.5625 18H5C4.57812 18 4.25 18.375 4.25 18.75C4.25 19.1719 4.57812 19.5 5 19.5H5.5625C6.45312 19.5 7.20312 18.9844 7.48438 18.1406L8 16.6406L8.75 19.0312C8.84375 19.3125 9.125 19.5 9.40625 19.5C9.45312 19.5 9.45312 19.5 9.45312 19.5C9.78125 19.5 10.0156 19.3594 10.1562 19.125L10.4844 18.375C10.625 18.1406 10.8594 18.0938 10.9531 18.0938C11.0938 18.0938 11.3281 18.1406 11.4688 18.4219C11.7969 19.0781 12.5 19.5 13.25 19.5H16.25V21.75H2.70312V2.29688H10.2031V7.17188C10.2031 7.78125 10.7188 8.29688 11.3281 8.29688H16.25V11.9531L18.5 9.70312V6.1875C18.5 5.625 18.2188 5.01562 17.7969 4.59375L13.8594 0.703125C13.4375 0.28125 12.875 0 12.3125 0H2.70312C1.48438 0.046875 0.5 1.03125 0.5 2.29688V21.7969C0.5 23.0156 1.48438 24 2.70312 24H16.2031C17.4688 24 18.5 23.0156 18.5 21.7969V18.2344L24.7812 11.9062L21.5938 8.71875L15.9219 14.3438ZM12.4531 2.4375L16.0625 6.04688H12.4531V2.4375Z" fill="#2471FB"/>
</svg>
