<svg width="24" height="23" viewBox="0 0 24 23" fill="none" xmlns="http://www.w3.org/2000/svg">
<path d="M16.125 12.5H13.5V9.875C13.5 9.6875 13.3125 9.5 13.125 9.5H10.875C10.6406 9.5 10.5 9.6875 10.5 9.875V12.5H7.875C7.64062 12.5 7.5 12.6875 7.5 12.875V15.125C7.5 15.3594 7.64062 15.5 7.875 15.5H10.5V18.125C10.5 18.3594 10.6406 18.5 10.875 18.5H13.125C13.3125 18.5 13.5 18.3594 13.5 18.125V15.5H16.125C16.3125 15.5 16.5 15.3594 16.5 15.125V12.875C16.5 12.6875 16.3125 12.5 16.125 12.5ZM21.75 5H16.5V2.75C16.5 1.53125 15.4688 0.5 14.25 0.5H9.75C8.48438 0.5 7.5 1.53125 7.5 2.75V5H2.25C0.984375 5 0 6.03125 0 7.25V20.75C0 22.0156 0.984375 23 2.25 23H21.75C22.9688 23 24 22.0156 24 20.75V7.25C24 6.03125 22.9688 5 21.75 5ZM9.75 2.75H14.25V5H9.75V2.75ZM21.75 20.4688C21.75 20.6562 21.6094 20.75 21.4688 20.75H2.53125C2.34375 20.75 2.25 20.6562 2.25 20.4688V7.53125C2.25 7.39062 2.34375 7.25 2.53125 7.25H21.4688C21.6094 7.25 21.75 7.39062 21.75 7.53125V20.4688Z" fill="#2471FB"/>
</svg>
