<svg width="24" height="24" viewBox="0 0 24 24" fill="none" xmlns="http://www.w3.org/2000/svg">
<path d="M12 0.375C5.57812 0.375 0.375 5.57812 0.375 12C0.375 18.4219 5.57812 23.625 12 23.625C18.4219 23.625 23.625 18.4219 23.625 12C23.625 5.57812 18.4219 0.375 12 0.375ZM20.3906 7.875H17.25C16.9219 6.1875 16.4062 4.6875 15.75 3.46875C17.7656 4.35938 19.4062 5.90625 20.3906 7.875ZM12 2.625C12.8438 2.625 14.25 4.59375 14.9531 7.875H9C9.70312 4.59375 11.1094 2.625 12 2.625ZM2.625 12C2.625 11.3906 2.67188 10.7344 2.8125 10.125H6.42188C6.375 10.7812 6.375 11.3906 6.375 12C6.375 12.6562 6.375 13.2656 6.42188 13.875H2.8125C2.67188 13.3125 2.625 12.6562 2.625 12ZM3.5625 16.125H6.70312C7.03125 17.8594 7.54688 19.3594 8.20312 20.5781C6.1875 19.6875 4.54688 18.0938 3.5625 16.125ZM6.70312 7.875H3.5625C4.54688 5.90625 6.1875 4.35938 8.20312 3.46875C7.54688 4.6875 7.03125 6.1875 6.70312 7.875ZM12 21.375C11.1094 21.375 9.70312 19.4531 9 16.125H14.9531C14.25 19.4531 12.8438 21.375 12 21.375ZM15.2812 13.875H8.67188C8.625 13.3125 8.625 12.6562 8.625 12C8.625 11.3438 8.625 10.7344 8.67188 10.125H15.2812C15.3281 10.7344 15.375 11.3438 15.375 12C15.375 12.6562 15.3281 13.3125 15.2812 13.875ZM15.75 20.5781C16.4062 19.3594 16.9219 17.8594 17.25 16.125H20.3906C19.4062 18.0938 17.7656 19.6875 15.75 20.5781ZM17.5312 13.875C17.5781 13.2656 17.625 12.6562 17.625 12C17.625 11.3906 17.5781 10.7812 17.5312 10.125H21.1875C21.2812 10.7344 21.375 11.3906 21.375 12C21.375 12.6562 21.2812 13.3125 21.1875 13.875H17.5312Z" fill="#2471FB"/>
</svg>
